<svg xmlns="http://www.w3.org/2000/svg" width="24" height="24" fill="#FFFFFF" viewBox="0 0 24 24">
  <path d="M12 .5a12 12 0 0 0-3.79 23.4c.6.11.82-.26.82-.58v-2.17c-3.34.73-4.04-1.61-4.04-1.61a3.18 3.18 0 0 0-1.34-1.77c-1.09-.75.08-.74.08-.74a2.5 2.5 0 0 1 1.83 1.23 2.53 2.53 0 0 0 3.44 1 2.52 2.52 0 0 1 .76-1.6c-2.67-.3-5.47-1.34-5.47-5.95a4.65 4.65 0 0 1 1.24-3.23 4.32 4.32 0 0 1 .12-3.18s1-.32 3.3 1.23a11.39 11.39 0 0 1 6 0C17.98 4.46 19 4.78 19 4.78a4.32 4.32 0 0 1 .12 3.18 4.65 4.65 0 0 1 1.24 3.23c0 4.62-2.8 5.64-5.48 5.93a2.82 2.82 0 0 1 .8 2.19v3.24c0 .32.21.7.83.58A12 12 0 0 0 12 .5Z"/>
</svg>
